<svg xmlns="http://www.w3.org/2000/svg" width="30" height="30" viewBox="0 0 30 30"><g><g><g><g/><g><path d="M25.605 0A4.4 4.4 0 0 1 30 4.395v21.21A4.4 4.4 0 0 1 25.606 30H4.395A4.4 4.4 0 0 1 0 25.606V4.395A4.4 4.4 0 0 1 4.395 0zM22.97 14.941c0-4.361-3.549-7.91-7.91-7.91-4.362 0-7.91 3.549-7.91 7.91 0 4.362 3.548 7.91 7.91 7.91 4.361 0 7.91-3.548 7.91-7.91zm3.515-8.789a2.64 2.64 0 0 0-2.636-2.636 2.64 2.64 0 0 0-2.637 2.636 2.64 2.64 0 0 0 2.637 2.637 2.64 2.64 0 0 0 2.636-2.637z"/></g><g><path d="M23.849 5.27a.88.88 0 1 0 .001 1.759.88.88 0 0 0-.001-1.759z"/></g><g><path d="M15.062 8.79a6.16 6.16 0 0 0-6.152 6.152 6.16 6.16 0 0 0 6.152 6.153 6.16 6.16 0 0 0 6.153-6.153 6.16 6.16 0 0 0-6.153-6.152z"/></g></g></g></g></svg>