<svg xmlns="http://www.w3.org/2000/svg" width="30" height="26" viewBox="0 0 30 26"><g><g><path d="M11.192 25.303c-1.297 0-2.633-.105-3.976-.315-2.366-.372-4.76-1.61-5.439-1.98L0 22.036l1.924-.632c2.104-.692 3.384-1.121 4.968-1.793-1.586-.768-2.809-2.15-3.397-3.936l-.448-1.36.367.057a6.675 6.675 0 0 1-.836-1.031C1.82 12.19 1.42 10.783 1.504 9.578l.085-1.186.71.275a6.64 6.64 0 0 1-.644-1.804c-.31-1.544-.05-3.185.732-4.62l.618-1.136.828.994c2.616 3.144 5.93 5.008 9.865 5.554-.161-1.107-.04-2.176.358-3.134.464-1.116 1.29-2.062 2.386-2.736a7.167 7.167 0 0 1 4.16-1.022c1.553.096 2.963.678 4.083 1.685.547-.142.95-.294 1.495-.5.328-.123.7-.263 1.165-.423l1.714-.59-1.118 3.192a5.66 5.66 0 0 1 .229-.015L30 4.029l-1.082 1.478c-.062.085-.077.109-.1.142-.087.132-.195.295-1.68 2.278-.371.496-.557 1.143-.523 1.82.132 2.577-.184 4.908-.94 6.928-.714 1.912-1.821 3.552-3.29 4.875-1.818 1.637-4.136 2.758-6.89 3.331-1.35.281-2.801.422-4.303.422z"/></g></g></svg>