<svg xmlns="http://www.w3.org/2000/svg" width="30" height="17" viewBox="0 0 30 17"><g><g><path d="M26.82 6.395C29.926 2.192 29.238 2.113 30 .8h-5.949s-.423 1.468-.552 1.73c-1.142 2.324-3.705 5.811-5.255 6.168-1.526.35-1.324-3.256-1.23-4.818.089-1.449.074-1.955.031-2.205a.84.84 0 0 0-.737-.68 21.886 21.886 0 0 0-3.677-.16l-1.38.046c.545 1.217.912.844 1.112 2.251.226 1.648.137 5.657-1.485 5.657C8.276 8.79 5.356.976 5.263.8H0l.482 1.205c3.88 9.716 8.735 14.216 15.376 14.59l.865.025.061-.839c.094-1.296.744-3.162 1.897-3.162 1.704 0 2.197.496 3.32 1.885 1.081 1.331 1.826 2.116 3.57 2.116H30l-.632-1.27c-.986-1.98-2.965-3.678-3.738-4.663-.28-.371-.555-.957-.27-1.666.233-.618.928-1.906 1.46-2.626z"/></g></g></svg>